<svg xmlns="http://www.w3.org/2000/svg" xmlns:xlink="http://www.w3.org/1999/xlink" width="40" zoomAndPan="magnify" viewBox="0 0 30 30.000001" height="40" preserveAspectRatio="xMidYMid meet" version="1.0"><defs><clipPath id="a5f29925f9"><path d="M 0.484375 6 L 29.515625 6 L 29.515625 22.921875 L 0.484375 22.921875 Z M 0.484375 6 " clip-rule="nonzero"/></clipPath></defs><g clip-path="url(#a5f29925f9)"><path fill="#00678c" d="M 0.425781 20.789062 L 1.429688 20.789062 L 1.429688 16.820312 L 2.992188 20.28125 C 3.167969 20.699219 3.425781 20.851562 3.917969 20.851562 C 4.410156 20.851562 4.648438 20.695312 4.832031 20.28125 L 6.386719 16.820312 L 6.386719 20.789062 L 7.398438 20.789062 L 7.398438 16.820312 C 7.398438 16.433594 7.242188 16.25 6.917969 16.148438 C 6.15625 15.917969 5.648438 16.117188 5.417969 16.632812 L 3.882812 20.058594 L 2.40625 16.632812 C 2.183594 16.117188 1.667969 15.917969 0.894531 16.148438 C 0.582031 16.25 0.425781 16.433594 0.425781 16.820312 Z M 8.230469 17.558594 L 9.238281 17.558594 L 9.238281 19.742188 C 9.230469 19.863281 9.277344 20.140625 9.828125 20.148438 C 10.109375 20.15625 12 20.148438 12.011719 20.148438 L 12.011719 17.542969 L 13.023438 17.542969 L 13.023438 21.113281 C 13.023438 21.992188 11.933594 22.183594 11.429688 22.191406 L 8.253906 22.191406 L 8.253906 21.523438 L 11.4375 21.523438 C 12.082031 21.453125 12.007812 21.128906 12.007812 21.023438 L 12.007812 20.757812 L 9.871094 20.757812 C 8.878906 20.75 8.238281 20.3125 8.230469 19.8125 Z M 29.875 15.03125 C 29.257812 15.015625 28.777344 15.078125 28.378906 15.246094 C 28.261719 15.292969 28.078125 15.292969 28.0625 15.4375 C 28.125 15.5 28.132812 15.601562 28.1875 15.6875 C 28.277344 15.839844 28.441406 16.046875 28.585938 16.15625 C 28.75 16.28125 28.910156 16.402344 29.078125 16.511719 C 29.378906 16.695312 29.71875 16.804688 30.011719 16.988281 C 30.179688 17.097656 30.351562 17.234375 30.519531 17.351562 C 30.605469 17.414062 30.660156 17.511719 30.765625 17.550781 L 30.765625 17.527344 C 30.710938 17.460938 30.695312 17.359375 30.644531 17.28125 C 30.566406 17.203125 30.488281 17.136719 30.410156 17.058594 C 30.1875 16.757812 29.910156 16.496094 29.609375 16.28125 C 29.363281 16.109375 28.824219 15.878906 28.726562 15.59375 L 28.710938 15.578125 C 28.878906 15.5625 29.078125 15.5 29.242188 15.453125 C 29.503906 15.386719 29.742188 15.402344 30.011719 15.332031 C 30.136719 15.300781 30.257812 15.261719 30.382812 15.222656 L 30.382812 15.15625 C 30.242188 15.015625 30.144531 14.832031 29.996094 14.699219 C 29.605469 14.359375 29.171875 14.027344 28.726562 13.75 C 28.488281 13.597656 28.179688 13.496094 27.925781 13.367188 C 27.832031 13.320312 27.679688 13.296875 27.625 13.21875 C 27.484375 13.050781 27.410156 12.824219 27.308594 12.625 C 27.085938 12.203125 26.867188 11.730469 26.675781 11.285156 C 26.539062 10.984375 26.453125 10.683594 26.285156 10.40625 C 25.492188 9.09375 24.628906 8.300781 23.304688 7.519531 C 23.019531 7.359375 22.679688 7.289062 22.320312 7.207031 L 21.742188 7.175781 C 21.617188 7.121094 21.496094 6.972656 21.386719 6.902344 C 20.949219 6.625 19.816406 6.023438 19.492188 6.820312 C 19.285156 7.320312 19.800781 7.8125 19.976562 8.070312 C 20.105469 8.246094 20.277344 8.445312 20.367188 8.648438 C 20.421875 8.777344 20.4375 8.917969 20.492188 9.054688 C 20.613281 9.394531 20.730469 9.773438 20.890625 10.089844 C 20.976562 10.25 21.070312 10.421875 21.175781 10.566406 C 21.238281 10.652344 21.347656 10.691406 21.371094 10.828125 C 21.261719 10.984375 21.253906 11.214844 21.191406 11.40625 C 20.914062 12.277344 21.023438 13.359375 21.414062 13.996094 C 21.539062 14.191406 21.828125 14.613281 22.222656 14.453125 C 22.570312 14.3125 22.492188 13.875 22.59375 13.488281 C 22.617188 13.398438 22.601562 13.335938 22.648438 13.273438 L 22.648438 13.289062 L 22.964844 13.929688 C 23.203125 14.304688 23.617188 14.699219 23.964844 14.960938 C 24.148438 15.101562 24.296875 15.339844 24.527344 15.425781 L 24.527344 15.402344 L 24.511719 15.402344 C 24.464844 15.332031 24.394531 15.300781 24.335938 15.246094 C 24.195312 15.109375 24.042969 14.9375 23.933594 14.785156 C 23.609375 14.351562 23.324219 13.875 23.070312 13.382812 C 22.949219 13.140625 22.839844 12.878906 22.742188 12.640625 C 22.695312 12.546875 22.695312 12.410156 22.617188 12.363281 C 22.5 12.53125 22.332031 12.679688 22.246094 12.886719 C 22.101562 13.21875 22.085938 13.628906 22.03125 14.050781 C 22 14.058594 22.015625 14.050781 22 14.066406 C 21.753906 14.007812 21.667969 13.75 21.578125 13.535156 C 21.347656 12.988281 21.308594 12.109375 21.507812 11.476562 C 21.5625 11.316406 21.792969 10.804688 21.699219 10.652344 C 21.652344 10.503906 21.5 10.421875 21.414062 10.304688 C 21.316406 10.160156 21.207031 9.972656 21.136719 9.8125 C 20.953125 9.378906 20.859375 8.902344 20.660156 8.46875 C 20.566406 8.269531 20.40625 8.0625 20.277344 7.875 C 20.128906 7.667969 19.96875 7.523438 19.851562 7.273438 C 19.8125 7.191406 19.757812 7.050781 19.820312 6.957031 C 19.835938 6.898438 19.867188 6.875 19.929688 6.859375 C 20.027344 6.773438 20.3125 6.882812 20.414062 6.925781 C 20.699219 7.042969 20.9375 7.152344 21.175781 7.3125 C 21.285156 7.390625 21.398438 7.535156 21.539062 7.574219 L 21.699219 7.574219 C 21.945312 7.628906 22.222656 7.589844 22.457031 7.660156 C 22.863281 7.792969 23.234375 7.984375 23.5625 8.191406 C 24.574219 8.832031 25.40625 9.742188 25.96875 10.828125 C 26.058594 11.007812 26.097656 11.167969 26.183594 11.355469 C 26.34375 11.730469 26.546875 12.117188 26.707031 12.488281 C 26.867188 12.847656 27.023438 13.21875 27.253906 13.519531 C 27.371094 13.683594 27.832031 13.765625 28.039062 13.851562 C 28.195312 13.921875 28.433594 13.984375 28.570312 14.066406 C 28.832031 14.230469 29.09375 14.414062 29.339844 14.59375 C 29.464844 14.683594 29.847656 14.878906 29.871094 15.03125 Z M 22.019531 8.332031 C 21.910156 8.328125 21.804688 8.34375 21.703125 8.367188 L 21.703125 8.382812 L 21.71875 8.382812 C 21.78125 8.507812 21.886719 8.59375 21.964844 8.699219 L 22.140625 9.070312 L 22.15625 9.054688 C 22.265625 8.976562 22.320312 8.855469 22.320312 8.671875 C 22.273438 8.617188 22.265625 8.5625 22.226562 8.507812 C 22.179688 8.429688 22.082031 8.390625 22.019531 8.332031 Z M 22.019531 8.332031 " fill-opacity="1" fill-rule="evenodd"/></g><path fill="#ce8b2c" d="M 13.792969 20.789062 L 16.6875 20.789062 C 17.027344 20.789062 17.351562 20.722656 17.613281 20.597656 C 18.050781 20.398438 18.257812 20.128906 18.257812 19.773438 L 18.257812 19.03125 C 18.257812 18.746094 18.019531 18.476562 17.542969 18.292969 C 17.296875 18.199219 16.988281 18.144531 16.6875 18.144531 L 15.46875 18.144531 C 15.0625 18.144531 14.871094 18.023438 14.816406 17.753906 C 14.808594 17.722656 14.808594 17.691406 14.808594 17.660156 L 14.808594 17.207031 C 14.808594 17.183594 14.808594 17.152344 14.816406 17.121094 C 14.871094 16.914062 14.976562 16.859375 15.332031 16.820312 L 18.300781 16.820312 L 18.300781 16.148438 L 15.480469 16.148438 C 15.070312 16.148438 14.855469 16.171875 14.664062 16.234375 C 14.070312 16.417969 13.808594 16.710938 13.808594 17.226562 L 13.808594 17.816406 C 13.808594 18.269531 14.316406 18.65625 15.179688 18.746094 C 15.273438 18.753906 15.371094 18.753906 15.472656 18.753906 L 16.511719 18.753906 C 16.550781 18.753906 16.589844 18.753906 16.621094 18.761719 C 16.933594 18.792969 17.074219 18.847656 17.167969 18.964844 C 17.226562 19.023438 17.242188 19.078125 17.242188 19.148438 L 17.242188 19.734375 C 17.242188 19.804688 17.199219 19.894531 17.105469 19.972656 C 17.011719 20.050781 16.867188 20.105469 16.671875 20.113281 C 16.636719 20.113281 16.613281 20.121094 16.574219 20.121094 L 13.792969 20.121094 Z M 24.527344 19.625 C 24.527344 20.3125 25.046875 20.699219 26.078125 20.773438 C 26.175781 20.78125 26.269531 20.789062 26.371094 20.789062 L 28.988281 20.789062 L 28.988281 20.121094 L 26.347656 20.121094 C 25.761719 20.121094 25.539062 19.972656 25.539062 19.617188 L 25.539062 16.148438 L 24.527344 16.148438 Z M 18.898438 19.65625 L 18.898438 17.265625 C 18.898438 16.65625 19.328125 16.289062 20.167969 16.171875 C 20.261719 16.164062 20.355469 16.15625 20.4375 16.15625 L 22.347656 16.15625 C 22.449219 16.15625 22.535156 16.164062 22.632812 16.171875 C 23.472656 16.289062 23.894531 16.65625 23.894531 17.265625 L 23.894531 19.65625 C 23.894531 20.148438 23.71875 20.414062 23.304688 20.589844 L 24.289062 21.484375 L 23.125 21.484375 L 22.324219 20.757812 L 21.515625 20.804688 L 20.4375 20.804688 C 20.238281 20.804688 20.042969 20.777344 19.851562 20.730469 C 19.214844 20.550781 18.898438 20.210938 18.898438 19.65625 Z M 19.984375 19.601562 C 19.984375 19.632812 20 19.664062 20.007812 19.703125 C 20.0625 19.980469 20.324219 20.136719 20.722656 20.136719 L 21.632812 20.136719 L 20.800781 19.378906 L 21.964844 19.378906 L 22.695312 20.042969 C 22.832031 19.964844 22.917969 19.855469 22.949219 19.71875 C 22.957031 19.6875 22.957031 19.648438 22.957031 19.617188 L 22.957031 17.328125 C 22.957031 17.296875 22.957031 17.265625 22.949219 17.234375 C 22.894531 16.972656 22.632812 16.828125 22.242188 16.828125 L 20.722656 16.828125 C 20.277344 16.828125 19.984375 17.019531 19.984375 17.328125 Z M 19.984375 19.601562 " fill-opacity="1" fill-rule="evenodd"/></svg>