<svg xmlns="http://www.w3.org/2000/svg" xmlns:xlink="http://www.w3.org/1999/xlink" width="40" zoomAndPan="magnify" viewBox="0 0 30 30.000001" height="40" preserveAspectRatio="xMidYMid meet" version="1.0"><defs><clipPath id="a6105582a0"><path d="M 0.484375 0 L 29.515625 0 L 29.515625 29.03125 L 0.484375 29.03125 Z M 0.484375 0 " clip-rule="nonzero"/></clipPath></defs><g clip-path="url(#a6105582a0)"><path fill="#fb503b" d="M 29.085938 6.566406 C 29.082031 6.550781 29.074219 6.539062 29.066406 6.527344 C 29.0625 6.5 29.050781 6.476562 29.039062 6.453125 C 29.03125 6.4375 29.023438 6.425781 29.011719 6.414062 C 29 6.394531 28.984375 6.378906 28.972656 6.363281 C 28.960938 6.351562 28.945312 6.339844 28.925781 6.328125 C 28.910156 6.3125 28.894531 6.300781 28.875 6.289062 L 23.414062 3.152344 C 23.261719 3.066406 23.113281 3.066406 22.960938 3.152344 L 17.5 6.292969 C 17.484375 6.304688 17.464844 6.320312 17.449219 6.332031 C 17.433594 6.34375 17.417969 6.355469 17.402344 6.367188 C 17.390625 6.382812 17.375 6.402344 17.363281 6.417969 C 17.351562 6.429688 17.34375 6.445312 17.335938 6.457031 C 17.324219 6.484375 17.316406 6.507812 17.308594 6.53125 C 17.300781 6.542969 17.296875 6.554688 17.289062 6.570312 C 17.28125 6.609375 17.273438 6.652344 17.273438 6.691406 L 17.273438 12.65625 L 12.726562 15.277344 L 12.726562 3.59375 C 12.726562 3.554688 12.71875 3.515625 12.710938 3.476562 C 12.703125 3.464844 12.699219 3.449219 12.691406 3.4375 C 12.683594 3.414062 12.675781 3.390625 12.664062 3.367188 C 12.65625 3.351562 12.640625 3.339844 12.636719 3.328125 C 12.625 3.3125 12.609375 3.292969 12.597656 3.277344 C 12.582031 3.265625 12.566406 3.253906 12.550781 3.242188 C 12.535156 3.230469 12.515625 3.214844 12.5 3.203125 L 7.039062 0.0625 C 6.886719 -0.0234375 6.738281 -0.0234375 6.585938 0.0625 L 1.125 3.203125 C 1.105469 3.214844 1.089844 3.230469 1.074219 3.242188 C 1.058594 3.253906 1.042969 3.265625 1.027344 3.277344 C 1.015625 3.292969 1 3.3125 0.988281 3.328125 C 0.976562 3.34375 0.964844 3.355469 0.953125 3.367188 C 0.941406 3.390625 0.933594 3.414062 0.925781 3.4375 C 0.917969 3.449219 0.914062 3.460938 0.910156 3.476562 C 0.898438 3.515625 0.894531 3.554688 0.890625 3.59375 L 0.890625 22.289062 C 0.890625 22.464844 0.964844 22.597656 1.117188 22.6875 L 12.035156 28.96875 C 12.058594 28.980469 12.082031 28.992188 12.109375 29 C 12.121094 29.003906 12.128906 29.007812 12.140625 29.015625 C 12.21875 29.035156 12.296875 29.035156 12.375 29.015625 C 12.386719 29.007812 12.398438 29.003906 12.410156 29.003906 C 12.4375 28.996094 12.460938 28.984375 12.488281 28.96875 L 23.414062 22.6875 C 23.566406 22.597656 23.644531 22.464844 23.640625 22.289062 L 23.640625 16.324219 L 28.871094 13.3125 C 29.023438 13.226562 29.097656 13.09375 29.097656 12.917969 L 29.097656 6.683594 C 29.097656 6.644531 29.09375 6.605469 29.085938 6.566406 Z M 6.8125 0.980469 L 11.359375 3.601562 L 6.8125 6.21875 L 2.265625 3.59375 Z M 11.820312 4.382812 L 11.820312 15.796875 L 9.183594 17.316406 L 7.269531 18.417969 L 7.269531 7.003906 L 9.90625 5.484375 Z M 11.820312 27.789062 L 1.8125 22.03125 L 1.8125 4.382812 L 3.722656 5.484375 L 6.359375 7.003906 L 6.359375 19.207031 C 6.359375 19.222656 6.359375 19.238281 6.363281 19.257812 C 6.367188 19.28125 6.371094 19.300781 6.375 19.324219 C 6.382812 19.34375 6.390625 19.359375 6.398438 19.375 C 6.402344 19.394531 6.410156 19.414062 6.421875 19.433594 C 6.429688 19.449219 6.441406 19.464844 6.453125 19.476562 C 6.46875 19.492188 6.480469 19.507812 6.496094 19.523438 C 6.503906 19.535156 6.523438 19.546875 6.539062 19.558594 C 6.554688 19.570312 6.574219 19.585938 6.589844 19.597656 L 11.820312 22.558594 Z M 12.273438 21.769531 L 7.730469 19.199219 L 12.5 16.457031 L 17.734375 13.445312 L 22.273438 16.058594 L 18.941406 17.964844 Z M 22.734375 22.03125 L 12.726562 27.789062 L 12.726562 22.558594 L 20.136719 18.328125 L 22.734375 16.839844 Z M 22.734375 15.277344 L 20.824219 14.175781 L 18.1875 12.65625 L 18.1875 7.472656 L 20.097656 8.574219 L 22.734375 10.09375 Z M 23.1875 9.304688 L 18.640625 6.683594 L 23.1875 4.066406 L 27.734375 6.683594 Z M 23.640625 15.277344 L 23.640625 10.09375 L 26.285156 8.574219 L 28.195312 7.472656 L 28.195312 12.65625 Z M 23.640625 15.277344 " fill-opacity="1" fill-rule="nonzero"/></g></svg>