<svg xmlns="http://www.w3.org/2000/svg" xmlns:xlink="http://www.w3.org/1999/xlink" width="40" zoomAndPan="magnify" viewBox="0 0 30 30.000001" height="40" preserveAspectRatio="xMidYMid meet" version="1.0"><defs><clipPath id="14e76c064c"><path d="M 1.101562 6 L 28.679688 6 L 28.679688 23 L 1.101562 23 Z M 1.101562 6 " clip-rule="nonzero"/></clipPath></defs><g clip-path="url(#14e76c064c)"><path fill="#000000" d="M 28.679688 21.988281 C 27.679688 22.242188 27.058594 22 26.5 21.164062 L 22.542969 15.683594 L 21.96875 14.925781 L 17.34375 21.179688 C 16.816406 21.933594 16.261719 22.261719 15.277344 21.996094 L 21.199219 14.046875 L 15.683594 6.867188 C 16.632812 6.683594 17.289062 6.777344 17.871094 7.625 L 21.976562 13.171875 L 26.113281 7.65625 C 26.644531 6.902344 27.214844 6.617188 28.164062 6.894531 L 26.027344 9.726562 L 23.132812 13.5 C 22.785156 13.929688 22.835938 14.222656 23.152344 14.640625 Z M 1.109375 13.914062 L 1.59375 11.53125 C 2.910156 6.816406 8.316406 4.859375 12.042969 7.769531 C 14.21875 9.484375 14.761719 11.90625 14.652344 14.621094 L 2.375 14.621094 C 2.191406 19.507812 5.710938 22.460938 10.195312 20.953125 C 11.765625 20.425781 12.691406 19.195312 13.15625 17.652344 C 13.390625 16.882812 13.78125 16.761719 14.507812 16.980469 C 14.136719 18.90625 13.300781 20.519531 11.535156 21.527344 C 8.894531 23.035156 5.125 22.546875 3.144531 20.449219 C 1.960938 19.234375 1.476562 17.691406 1.257812 16.042969 C 1.222656 15.773438 1.152344 15.511719 1.101562 15.25 C 1.105469 14.804688 1.109375 14.359375 1.109375 13.914062 Z M 2.398438 13.585938 L 13.492188 13.585938 C 13.421875 10.050781 11.21875 7.542969 8.214844 7.519531 C 4.910156 7.496094 2.542969 9.945312 2.398438 13.585938 Z M 2.398438 13.585938 " fill-opacity="1" fill-rule="nonzero"/></g></svg>